# xmcd
#
# Track frame offsets: 
#        150
#        21742
#        33552
#        43907
#        60940
#        75352
#        82027
#        95690
#        106955
#        121137
#        137942
#        162675
#
# Disc length: 2340 seconds
#
# Revision: 3
# Processed by: cddbd v1.5.1PL0 Copyright (c) Steve Scherf et al.
# Submitted via: ExactAudioCopy v0.95a5
#
DISCID=a309220c
DTITLE=John Denver - Back Home Again
DYEAR=1974
DGENRE=country
TTITLE0=Back Home Again
TTITLE1=On The Road
TTITLE2=Grandma's Feather Bed
TTITLE3=Matthew
TTITLE4=Thank God I'm a Country Boy
TTITLE5=The Music is You
TTITLE6=Annie's Song
TTITLE7=It's Up To You
TTITLE8=Cool an' Green an' Shady
TTITLE9=Eclipse
TTITLE10=Sweet Surrender
TTITLE11=This Old Guitar
EXTD=
EXTT0=
EXTT1=
EXTT2=
EXTT3=
EXTT4=
EXTT5=
EXTT6=
EXTT7=
EXTT8=
EXTT9=
EXTT10=
EXTT11=
PLAYORDER=
